<svg xmlns="http://www.w3.org/2000/svg" viewBox="0 0 560 360" role="img" aria-labelledby="title desc">
  <title id="title">Ilustracao de parabens em nanquim e aquarela</title>
  <desc id="desc">Uma mulher morena sentada com um livro na mao, sorrindo e parabenizando o jogador em estilo de nanquim com aquarela.</desc>
  <defs>
    <filter id="cardShadow" x="-10%" y="-10%" width="120%" height="130%">
      <feDropShadow dx="0" dy="12" stdDeviation="12" flood-color="#16233a" flood-opacity=".16"/>
    </filter>
    <filter id="washBlur" x="-20%" y="-20%" width="140%" height="140%">
      <feGaussianBlur stdDeviation="10"/>
    </filter>
    <linearGradient id="paperGlow" x1="0%" y1="0%" x2="100%" y2="100%">
      <stop offset="0%" stop-color="#fff9f0"/>
      <stop offset="100%" stop-color="#fdf3e6"/>
    </linearGradient>
    <linearGradient id="bookCover" x1="0%" y1="0%" x2="100%" y2="100%">
      <stop offset="0%" stop-color="#5d7f9a"/>
      <stop offset="100%" stop-color="#2f556f"/>
    </linearGradient>
    <linearGradient id="dressTone" x1="0%" y1="0%" x2="100%" y2="100%">
      <stop offset="0%" stop-color="#4f97a7"/>
      <stop offset="100%" stop-color="#2d5e80"/>
    </linearGradient>
    <linearGradient id="skirtTone" x1="0%" y1="0%" x2="100%" y2="100%">
      <stop offset="0%" stop-color="#3c7b8c"/>
      <stop offset="100%" stop-color="#1e4f66"/>
    </linearGradient>
  </defs>

  <g filter="url(#cardShadow)">
    <rect x="8" y="8" width="544" height="344" rx="28" fill="url(#paperGlow)"/>
  </g>

  <g opacity=".9" filter="url(#washBlur)">
    <path d="M98 46c46-24 112-16 148 28 18 22 22 54 10 76-18 32-58 42-104 34-44-8-96-28-104-68-6-34 14-56 50-70z" fill="#7fe2d7" fill-opacity=".48"/>
    <path d="M370 44c42-18 106-10 128 34 18 34 10 74-26 96-30 18-72 18-104 2-30-14-58-44-50-78 8-30 24-42 52-54z" fill="#f7bfd2" fill-opacity=".42"/>
    <path d="M112 244c48-20 128-6 162 40 20 28 16 50-20 56-52 10-162 6-198-34-22-24-12-48 56-62z" fill="#f3d78b" fill-opacity=".42"/>
    <path d="M350 222c50-12 116 4 144 44 16 22 18 48-10 58-36 12-116 8-154-18-32-22-30-68 20-84z" fill="#9ad7f2" fill-opacity=".34"/>
  </g>

  <g fill="none" stroke="#1d2437" stroke-linecap="round" stroke-linejoin="round">
    <path d="M84 278c48 18 136 26 216 18 66-6 112-22 154-44" opacity=".12" stroke-width="6"/>
    <path d="M96 83c18-12 40-18 66-18" opacity=".2" stroke-width="3"/>
    <path d="M392 274c18 12 38 18 60 18" opacity=".18" stroke-width="3"/>
  </g>

  <g transform="translate(72 46)" stroke="#20263b" stroke-width="3.2" stroke-linecap="round" stroke-linejoin="round">
    <ellipse cx="170" cy="256" rx="118" ry="18" fill="#10263b" fill-opacity=".12" stroke="none"/>

    <g transform="translate(24 172)">
      <path d="M0 42h122l18 18H22z" fill="#f2d483"/>
      <path d="M22 22h124l16 20H40z" fill="#8dd8cf"/>
      <path d="M42 0h124l18 22H58z" fill="url(#bookCover)"/>
      <path d="M12 42h118" opacity=".34"/>
      <path d="M34 22h118" opacity=".34"/>
      <path d="M56 0h116" opacity=".34"/>
    </g>

    <path d="M150 78c-10 10-16 24-16 42v18c0 14 12 28 28 28h14c18 0 34-14 34-32v-16c0-20-8-34-22-44z" fill="#f6c39b"/>
    <path d="M183 128c-6 10-12 18-24 18-12 0-20-6-25-16" fill="none"/>
    <path d="M162 70c-26 10-34 36-34 54 0 10 2 20 6 28-8-6-14-18-16-30-6-30 4-58 28-74 18-12 40-14 56-8 22 8 38 26 42 50 4 20-2 40-16 54 4-10 6-20 6-32 0-22-8-42-24-54-12-8-30-10-48-4z" fill="#5e382f"/>
    <path d="M136 120c-8-6-12-14-14-22-4-18 2-40 16-54 22-22 58-28 88-12 28 14 42 44 34 74-4 12-10 22-20 30 2-10 4-18 4-28 0-38-18-68-48-78-24-8-46 0-60 18z" fill="#6e4436"/>
    <path d="M166 104c8-6 16-6 24 0" fill="none"/>
    <path d="M144 106c8-6 16-6 24 0" fill="none"/>
    <path d="M150 114c4 4 10 4 14 0" fill="none"/>
    <path d="M175 122c8 6 18 6 26 0" fill="none"/>
    <path d="M147 122c8 6 18 6 26 0" fill="none"/>

    <path d="M132 142c18-18 58-20 82 0 18 14 28 34 30 64-20 14-54 22-94 18-28-2-52-12-66-26 0-24 6-42 18-56 8-10 18-18 30-22z" fill="#e7faf5"/>
    <path d="M118 156c4-8 12-14 22-18" fill="none"/>
    <path d="M158 140c14-2 28-2 42 2" fill="none"/>

    <path d="M242 156c18-8 30-14 40-28 10-12 28-16 40-6 8 8 8 18 0 26-10 10-26 16-42 20-18 4-30 4-42 0z" fill="#f6c39b"/>
    <path d="M238 154c-2 6-2 12 0 18 4 8 14 12 24 12 6 0 10-2 14-4" fill="none"/>
    <path d="M116 170c-10 10-20 30-24 54 10 6 20 10 32 14 4-22 10-40 20-54z" fill="#f6c39b"/>

    <path d="M96 196c28-18 108-24 150 2 18 12 32 30 42 58-16 18-36 30-60 36-46 12-110 0-146-26-10-32-6-56 14-70z" fill="url(#skirtTone)"/>
    <path d="M104 204c28-12 86-14 124 4" fill="none" opacity=".45"/>
    <path d="M122 224c28 8 70 10 110 4" fill="none" opacity=".4"/>

    <path d="M194 248c26 18 54 44 64 72h-42c-12-22-34-42-56-54z" fill="#f2bf90"/>
    <path d="M120 254c20 10 44 26 56 50H136c-12-12-24-28-32-46z" fill="#f2bf90"/>
    <path d="M252 320h-54c0-10 4-16 12-20 14-8 28-6 42 4z" fill="#2e3b55"/>
    <path d="M180 304h-54c10-16 24-22 40-20 8 0 14 8 14 20z" fill="#2e3b55"/>

    <g transform="translate(248 102) rotate(8)">
      <path d="M0 26c18-12 42-18 72-18v68c-28 0-54 6-72 18z" fill="#fff8ef"/>
      <path d="M72 8c18 0 36 4 54 14v68c-16-8-34-12-54-14z" fill="#fff4e6"/>
      <path d="M72 8v68" fill="none"/>
      <path d="M14 26c12-6 28-10 46-12" opacity=".35"/>
      <path d="M14 40c12-6 28-10 46-12" opacity=".35"/>
      <path d="M14 54c12-6 28-10 46-12" opacity=".35"/>
      <path d="M84 24c10 0 22 2 34 8" opacity=".35"/>
      <path d="M84 38c10 0 22 2 34 8" opacity=".35"/>
      <path d="M84 52c10 0 22 2 34 8" opacity=".35"/>
    </g>

    <path d="M102 320c42 6 118 8 176-4" fill="none" opacity=".22"/>

    <g transform="translate(314 18)">
      <path d="M18 0h132c18 0 32 14 32 32v26c0 18-14 32-32 32H88L56 114l8-24H18C8 90 0 82 0 72V18C0 8 8 0 18 0z" fill="#fffaf3"/>
      <path d="M18 0h132c18 0 32 14 32 32v26c0 18-14 32-32 32H88L56 114l8-24H18C8 90 0 82 0 72V18C0 8 8 0 18 0z" fill="none"/>
      <text x="90" y="38" text-anchor="middle" font-family="'Trebuchet MS', 'Segoe UI', sans-serif" font-size="24" font-weight="700" fill="#1c2738" stroke="none">Parabens!</text>
      <text x="90" y="64" text-anchor="middle" font-family="'Trebuchet MS', 'Segoe UI', sans-serif" font-size="18" fill="#355f77" stroke="none">Voce brilhou!</text>
    </g>

    <g fill="#1f2c43" stroke="none" opacity=".85">
      <path d="M286 46l4 10 10 4-10 4-4 10-4-10-10-4 10-4z"/>
      <path d="M334 262l3 8 8 3-8 3-3 8-3-8-8-3 8-3z"/>
      <path d="M62 72l3 8 8 3-8 3-3 8-3-8-8-3 8-3z"/>
    </g>
  </g>
</svg>
