<svg xmlns="http://www.w3.org/2000/svg" viewBox="0 0 640 400" role="img" aria-labelledby="title desc">
  <title id="title">Puzzle Misterioso</title>
  <desc id="desc">Thumbnail futurista de jogo em breve com simbolos abstratos e mensagem de desenvolvimento.</desc>
  <defs>
    <linearGradient id="bg2" x1="0%" y1="0%" x2="100%" y2="100%">
      <stop offset="0%" stop-color="#0b1022"/>
      <stop offset="52%" stop-color="#181932"/>
      <stop offset="100%" stop-color="#120d20"/>
    </linearGradient>
    <radialGradient id="halo" cx="50%" cy="40%" r="65%">
      <stop offset="0%" stop-color="#00ffff" stop-opacity="0.14"/>
      <stop offset="100%" stop-color="#00ffff" stop-opacity="0"/>
    </radialGradient>
  </defs>
  <rect width="640" height="400" fill="url(#bg2)"/>
  <rect width="640" height="400" fill="url(#halo)"/>
  <g opacity="0.18" stroke="#00ffff">
    <path d="M56 82H584M56 160H584M56 238H584M56 316H584"/>
    <path d="M120 46V354M220 46V354M320 46V354M420 46V354M520 46V354"/>
  </g>
  <rect x="44" y="44" width="552" height="312" rx="28" fill="#10162c" fill-opacity="0.82" stroke="#00ffff" stroke-opacity="0.22"/>
  <g transform="translate(84 84)">
    <circle cx="118" cy="118" r="92" fill="#f92572" fill-opacity="0.08"/>
    <path d="M118 36c42 0 76 30 76 68 0 27-18 48-41 60-10 5-15 12-15 22v8h-40v-12c0-18 8-33 25-44 13-8 23-17 23-31 0-15-13-27-30-27-19 0-32 12-35 31l-43-6c7-40 39-69 80-69zm-24 192h48v42H94z" fill="#f92572"/>
    <circle cx="118" cy="118" r="110" fill="none" stroke="#00ffff" stroke-opacity="0.28" stroke-width="3"/>
    <circle cx="118" cy="118" r="136" fill="none" stroke="#00ffff" stroke-opacity="0.14" stroke-width="2" stroke-dasharray="8 10"/>
  </g>
  <g transform="translate(346 88)">
    <text x="0" y="24" fill="#00ffff" font-family="Arial, Helvetica, sans-serif" font-size="13" font-weight="700" letter-spacing="2.6" textLength="170" lengthAdjust="spacingAndGlyphs">NOVO DESAFIO</text>
    <text x="0" y="76" fill="#ffffff" font-family="Arial, Helvetica, sans-serif" font-size="31" font-weight="700">
      <tspan x="0" dy="0" textLength="132" lengthAdjust="spacingAndGlyphs">PUZZLE</tspan>
      <tspan x="0" dy="34" textLength="206" lengthAdjust="spacingAndGlyphs">MISTERIOSO</tspan>
    </text>
    <text x="0" y="148" fill="#cfe8ff" font-family="Arial, Helvetica, sans-serif" font-size="13.5">
      <tspan x="0" dy="0" textLength="208" lengthAdjust="spacingAndGlyphs">Logica, enigmas e uma nova</tspan>
      <tspan x="0" dy="20" textLength="176" lengthAdjust="spacingAndGlyphs">experiencia em construcao.</tspan>
    </text>
    <g transform="translate(0 184)">
      <rect width="160" height="40" rx="20" fill="#f92572" fill-opacity="0.14" stroke="#f92572" stroke-opacity="0.5"/>
      <text x="80" y="25" fill="#f7b2ce" font-family="Arial, Helvetica, sans-serif" font-size="12.5" font-weight="700" text-anchor="middle" letter-spacing="2.2">EM BREVE</text>
    </g>
    <g transform="translate(0 248)" fill="#9dc8de" font-family="Arial, Helvetica, sans-serif" font-size="13.5" font-weight="700">
      <text y="0" textLength="150" lengthAdjust="spacingAndGlyphs">[status] incubando</text>
      <text y="20" textLength="154" lengthAdjust="spacingAndGlyphs">novas mecanicas</text>
      <text y="42" textLength="192" lengthAdjust="spacingAndGlyphs">[fase] interface + gameplay</text>
      <text y="64" textLength="160" lengthAdjust="spacingAndGlyphs">[sinal] aguardando</text>
      <text y="84" textLength="118" lengthAdjust="spacingAndGlyphs">desbloqueio</text>
    </g>
  </g>
</svg>
